<svg width="480" height="480" xmlns="http://www.w3.org/2000/svg" xmlns:xlink="http://www.w3.org/1999/xlink" xml:space="preserve" overflow="hidden"><defs><clipPath id="clip0"><rect x="800" y="16" width="480" height="480"/></clipPath></defs><g clip-path="url(#clip0)" transform="translate(-800 -16)"><path d="M875 96 875 96C872.239 96 870 93.761 870 91L870 91C870 88.239 872.239 86 875 86L875 86C877.761 86 880 88.239 880 91L880 91C880 93.761 877.761 96 875 96Z" fill="#E6E6E6"/><path d="M905 96 905 96C902.239 96 900 93.761 900 91L900 91C900 88.239 902.239 86 905 86L905 86C907.761 86 910 88.239 910 91L910 91C910 93.761 907.761 96 905 96Z" fill="#E6E6E6"/><path d="M935 96 935 96C932.239 96 930 93.761 930 91L930 91C930 88.239 932.239 86 935 86L935 86C937.761 86 940 88.239 940 91L940 91C940 93.761 937.761 96 935 96Z" fill="#E6E6E6"/><path d="M965 96 965 96C962.239 96 960 93.761 960 91L960 91C960 88.239 962.239 86 965 86L965 86C967.761 86 970 88.239 970 91L970 91C970 93.761 967.761 96 965 96Z" fill="#E6E6E6"/><path d="M995 96 995 96C992.239 96 990 93.761 990 91L990 91C990 88.239 992.239 86 995 86L995 86C997.761 86 1000 88.239 1000 91L1000 91C1000 93.761 997.761 96 995 96Z" fill="#E6E6E6"/><path d="M1025 96 1025 96C1022.24 96 1020 93.761 1020 91L1020 91C1020 88.239 1022.24 86 1025 86L1025 86C1027.76 86 1030 88.239 1030 91L1030 91C1030 93.761 1027.76 96 1025 96Z" fill="#E6E6E6"/><path d="M1055 96 1055 96C1052.24 96 1050 93.761 1050 91L1050 91C1050 88.239 1052.24 86 1055 86L1055 86C1057.76 86 1060 88.239 1060 91L1060 91C1060 93.761 1057.76 96 1055 96Z" fill="#E6E6E6"/><path d="M1085 96 1085 96C1082.24 96 1080 93.761 1080 91L1080 91C1080 88.239 1082.24 86 1085 86L1085 86C1087.76 86 1090 88.239 1090 91L1090 91C1090 93.761 1087.76 96 1085 96Z" fill="#E6E6E6"/><path d="M1115 96 1115 96C1112.24 96 1110 93.761 1110 91L1110 91C1110 88.239 1112.24 86 1115 86L1115 86C1117.76 86 1120 88.239 1120 91L1120 91C1120 93.761 1117.76 96 1115 96Z" fill="#E6E6E6"/><path d="M1145 96 1145 96C1142.24 96 1140 93.761 1140 91L1140 91C1140 88.239 1142.24 86 1145 86L1145 86C1147.76 86 1150 88.239 1150 91L1150 91C1150 93.761 1147.76 96 1145 96Z" fill="#E6E6E6"/><path d="M1175 96 1175 96C1172.24 96 1170 93.761 1170 91L1170 91C1170 88.239 1172.24 86 1175 86L1175 86C1177.76 86 1180 88.239 1180 91L1180 91C1180 93.761 1177.76 96 1175 96Z" fill="#E6E6E6"/><path d="M1205 96 1205 96C1202.24 96 1200 93.761 1200 91L1200 91C1200 88.239 1202.24 86 1205 86L1205 86C1207.76 86 1210 88.239 1210 91L1210 91C1210 93.761 1207.76 96 1205 96Z" fill="#E6E6E6"/><path d="M875 126 875 126C872.239 126 870 123.761 870 121L870 121C870 118.239 872.239 116 875 116L875 116C877.761 116 880 118.239 880 121L880 121C880 123.761 877.761 126 875 126Z" fill="#E6E6E6"/><path d="M905 126 905 126C902.239 126 900 123.761 900 121L900 121C900 118.239 902.239 116 905 116L905 116C907.761 116 910 118.239 910 121L910 121C910 123.761 907.761 126 905 126Z" fill="#E6E6E6"/><path d="M935 126 935 126C932.239 126 930 123.761 930 121L930 121C930 118.239 932.239 116 935 116L935 116C937.761 116 940 118.239 940 121L940 121C940 123.761 937.761 126 935 126Z" fill="#E6E6E6"/><path d="M965 126 965 126C962.239 126 960 123.761 960 121L960 121C960 118.239 962.239 116 965 116L965 116C967.761 116 970 118.239 970 121L970 121C970 123.761 967.761 126 965 126Z" fill="#E6E6E6"/><path d="M995 126 995 126C992.239 126 990 123.761 990 121L990 121C990 118.239 992.239 116 995 116L995 116C997.761 116 1000 118.239 1000 121L1000 121C1000 123.761 997.761 126 995 126Z" fill="#E6E6E6"/><path d="M1025 126 1025 126C1022.24 126 1020 123.761 1020 121L1020 121C1020 118.239 1022.24 116 1025 116L1025 116C1027.76 116 1030 118.239 1030 121L1030 121C1030 123.761 1027.76 126 1025 126Z" fill="#E6E6E6"/><path d="M1055 126 1055 126C1052.24 126 1050 123.761 1050 121L1050 121C1050 118.239 1052.24 116 1055 116L1055 116C1057.76 116 1060 118.239 1060 121L1060 121C1060 123.761 1057.76 126 1055 126Z" fill="#E6E6E6"/><path d="M1085 126 1085 126C1082.24 126 1080 123.761 1080 121L1080 121C1080 118.239 1082.24 116 1085 116L1085 116C1087.76 116 1090 118.239 1090 121L1090 121C1090 123.761 1087.76 126 1085 126Z" fill="#E6E6E6"/><path d="M1115 126 1115 126C1112.24 126 1110 123.761 1110 121L1110 121C1110 118.239 1112.24 116 1115 116L1115 116C1117.76 116 1120 118.239 1120 121L1120 121C1120 123.761 1117.76 126 1115 126Z" fill="#E6E6E6"/><path d="M1145 126 1145 126C1142.24 126 1140 123.761 1140 121L1140 121C1140 118.239 1142.24 116 1145 116L1145 116C1147.76 116 1150 118.239 1150 121L1150 121C1150 123.761 1147.76 126 1145 126Z" fill="#E6E6E6"/><path d="M1175 126 1175 126C1172.24 126 1170 123.761 1170 121L1170 121C1170 118.239 1172.24 116 1175 116L1175 116C1177.76 116 1180 118.239 1180 121L1180 121C1180 123.761 1177.76 126 1175 126Z" fill="#E6E6E6"/><path d="M1205 126 1205 126C1202.24 126 1200 123.761 1200 121L1200 121C1200 118.239 1202.24 116 1205 116L1205 116C1207.76 116 1210 118.239 1210 121L1210 121C1210 123.761 1207.76 126 1205 126Z" fill="#E6E6E6"/><path d="M875 156 875 156C872.239 156 870 153.761 870 151L870 151C870 148.239 872.239 146 875 146L875 146C877.761 146 880 148.239 880 151L880 151C880 153.761 877.761 156 875 156Z" fill="#E6E6E6"/><path d="M905 156 905 156C902.239 156 900 153.761 900 151L900 151C900 148.239 902.239 146 905 146L905 146C907.761 146 910 148.239 910 151L910 151C910 153.761 907.761 156 905 156Z" fill="#E6E6E6"/><path d="M935 156 935 156C932.239 156 930 153.761 930 151L930 151C930 148.239 932.239 146 935 146L935 146C937.761 146 940 148.239 940 151L940 151C940 153.761 937.761 156 935 156Z" fill="#E6E6E6"/><path d="M965 156 965 156C962.239 156 960 153.761 960 151L960 151C960 148.239 962.239 146 965 146L965 146C967.761 146 970 148.239 970 151L970 151C970 153.761 967.761 156 965 156Z" fill="#E6E6E6"/><path d="M995 156 995 156C992.239 156 990 153.761 990 151L990 151C990 148.239 992.239 146 995 146L995 146C997.761 146 1000 148.239 1000 151L1000 151C1000 153.761 997.761 156 995 156Z" fill="#E6E6E6"/><path d="M1025 156 1025 156C1022.24 156 1020 153.761 1020 151L1020 151C1020 148.239 1022.24 146 1025 146L1025 146C1027.76 146 1030 148.239 1030 151L1030 151C1030 153.761 1027.76 156 1025 156Z" fill="#E6E6E6"/><path d="M1055 156 1055 156C1052.24 156 1050 153.761 1050 151L1050 151C1050 148.239 1052.24 146 1055 146L1055 146C1057.76 146 1060 148.239 1060 151L1060 151C1060 153.761 1057.76 156 1055 156Z" fill="#E6E6E6"/><path d="M1085 156 1085 156C1082.24 156 1080 153.761 1080 151L1080 151C1080 148.239 1082.24 146 1085 146L1085 146C1087.76 146 1090 148.239 1090 151L1090 151C1090 153.761 1087.76 156 1085 156Z" fill="#E6E6E6"/><path d="M1115 156 1115 156C1112.24 156 1110 153.761 1110 151L1110 151C1110 148.239 1112.24 146 1115 146L1115 146C1117.76 146 1120 148.239 1120 151L1120 151C1120 153.761 1117.76 156 1115 156Z" fill="#E6E6E6"/><path d="M1145 156 1145 156C1142.24 156 1140 153.761 1140 151L1140 151C1140 148.239 1142.24 146 1145 146L1145 146C1147.76 146 1150 148.239 1150 151L1150 151C1150 153.761 1147.76 156 1145 156Z" fill="#E6E6E6"/><path d="M1175 156 1175 156C1172.24 156 1170 153.761 1170 151L1170 151C1170 148.239 1172.24 146 1175 146L1175 146C1177.76 146 1180 148.239 1180 151L1180 151C1180 153.761 1177.76 156 1175 156Z" fill="#E6E6E6"/><path d="M1205 156 1205 156C1202.24 156 1200 153.761 1200 151L1200 151C1200 148.239 1202.24 146 1205 146L1205 146C1207.76 146 1210 148.239 1210 151L1210 151C1210 153.761 1207.76 156 1205 156Z" fill="#E6E6E6"/><path d="M875 186 875 186C872.239 186 870 183.761 870 181L870 181C870 178.239 872.239 176 875 176L875 176C877.761 176 880 178.239 880 181L880 181C880 183.761 877.761 186 875 186Z" fill="#E6E6E6"/><path d="M905 186 905 186C902.239 186 900 183.761 900 181L900 181C900 178.239 902.239 176 905 176L905 176C907.761 176 910 178.239 910 181L910 181C910 183.761 907.761 186 905 186Z" fill="#E6E6E6"/><path d="M935 186 935 186C932.239 186 930 183.761 930 181L930 181C930 178.239 932.239 176 935 176L935 176C937.761 176 940 178.239 940 181L940 181C940 183.761 937.761 186 935 186Z" fill="#E6E6E6"/><path d="M965 186 965 186C962.239 186 960 183.761 960 181L960 181C960 178.239 962.239 176 965 176L965 176C967.761 176 970 178.239 970 181L970 181C970 183.761 967.761 186 965 186Z" fill="#E6E6E6"/><path d="M995 186 995 186C992.239 186 990 183.761 990 181L990 181C990 178.239 992.239 176 995 176L995 176C997.761 176 1000 178.239 1000 181L1000 181C1000 183.761 997.761 186 995 186Z" fill="#E6E6E6"/><path d="M1025 186 1025 186C1022.24 186 1020 183.761 1020 181L1020 181C1020 178.239 1022.24 176 1025 176L1025 176C1027.76 176 1030 178.239 1030 181L1030 181C1030 183.761 1027.76 186 1025 186Z" fill="#E6E6E6"/><path d="M1055 186 1055 186C1052.24 186 1050 183.761 1050 181L1050 181C1050 178.239 1052.24 176 1055 176L1055 176C1057.76 176 1060 178.239 1060 181L1060 181C1060 183.761 1057.76 186 1055 186Z" fill="#E6E6E6"/><path d="M1085 186 1085 186C1082.24 186 1080 183.761 1080 181L1080 181C1080 178.239 1082.24 176 1085 176L1085 176C1087.76 176 1090 178.239 1090 181L1090 181C1090 183.761 1087.76 186 1085 186Z" fill="#E6E6E6"/><path d="M1115 186 1115 186C1112.24 186 1110 183.761 1110 181L1110 181C1110 178.239 1112.24 176 1115 176L1115 176C1117.76 176 1120 178.239 1120 181L1120 181C1120 183.761 1117.76 186 1115 186Z" fill="#E6E6E6"/><path d="M1145 186 1145 186C1142.24 186 1140 183.761 1140 181L1140 181C1140 178.239 1142.24 176 1145 176L1145 176C1147.76 176 1150 178.239 1150 181L1150 181C1150 183.761 1147.76 186 1145 186Z" fill="#E6E6E6"/><path d="M1175 186 1175 186C1172.24 186 1170 183.761 1170 181L1170 181C1170 178.239 1172.24 176 1175 176L1175 176C1177.76 176 1180 178.239 1180 181L1180 181C1180 183.761 1177.76 186 1175 186Z" fill="#E6E6E6"/><path d="M1205 186 1205 186C1202.24 186 1200 183.761 1200 181L1200 181C1200 178.239 1202.24 176 1205 176L1205 176C1207.76 176 1210 178.239 1210 181L1210 181C1210 183.761 1207.76 186 1205 186Z" fill="#E6E6E6"/><path d="M875 216 875 216C872.239 216 870 213.761 870 211L870 211C870 208.239 872.239 206 875 206L875 206C877.761 206 880 208.239 880 211L880 211C880 213.761 877.761 216 875 216Z" fill="#E6E6E6"/><path d="M905 216 905 216C902.239 216 900 213.761 900 211L900 211C900 208.239 902.239 206 905 206L905 206C907.761 206 910 208.239 910 211L910 211C910 213.761 907.761 216 905 216Z" fill="#E6E6E6"/><path d="M935 216 935 216C932.239 216 930 213.761 930 211L930 211C930 208.239 932.239 206 935 206L935 206C937.761 206 940 208.239 940 211L940 211C940 213.761 937.761 216 935 216Z" fill="#E6E6E6"/><path d="M965 216 965 216C962.239 216 960 213.761 960 211L960 211C960 208.239 962.239 206 965 206L965 206C967.761 206 970 208.239 970 211L970 211C970 213.761 967.761 216 965 216Z" fill="#E6E6E6"/><path d="M995 216 995 216C992.239 216 990 213.761 990 211L990 211C990 208.239 992.239 206 995 206L995 206C997.761 206 1000 208.239 1000 211L1000 211C1000 213.761 997.761 216 995 216Z" fill="#E6E6E6"/><path d="M1025 216 1025 216C1022.24 216 1020 213.761 1020 211L1020 211C1020 208.239 1022.24 206 1025 206L1025 206C1027.76 206 1030 208.239 1030 211L1030 211C1030 213.761 1027.76 216 1025 216Z" fill="#E6E6E6"/><path d="M1055 216 1055 216C1052.24 216 1050 213.761 1050 211L1050 211C1050 208.239 1052.24 206 1055 206L1055 206C1057.76 206 1060 208.239 1060 211L1060 211C1060 213.761 1057.76 216 1055 216Z" fill="#E6E6E6"/><path d="M1085 216 1085 216C1082.24 216 1080 213.761 1080 211L1080 211C1080 208.239 1082.24 206 1085 206L1085 206C1087.76 206 1090 208.239 1090 211L1090 211C1090 213.761 1087.76 216 1085 216Z" fill="#E6E6E6"/><path d="M1115 216 1115 216C1112.24 216 1110 213.761 1110 211L1110 211C1110 208.239 1112.24 206 1115 206L1115 206C1117.76 206 1120 208.239 1120 211L1120 211C1120 213.761 1117.76 216 1115 216Z" fill="#E6E6E6"/><path d="M1145 216 1145 216C1142.24 216 1140 213.761 1140 211L1140 211C1140 208.239 1142.24 206 1145 206L1145 206C1147.76 206 1150 208.239 1150 211L1150 211C1150 213.761 1147.76 216 1145 216Z" fill="#E6E6E6"/><path d="M1175 216 1175 216C1172.24 216 1170 213.761 1170 211L1170 211C1170 208.239 1172.24 206 1175 206L1175 206C1177.76 206 1180 208.239 1180 211L1180 211C1180 213.761 1177.76 216 1175 216Z" fill="#E6E6E6"/><path d="M1205 216 1205 216C1202.24 216 1200 213.761 1200 211L1200 211C1200 208.239 1202.24 206 1205 206L1205 206C1207.76 206 1210 208.239 1210 211L1210 211C1210 213.761 1207.76 216 1205 216Z" fill="#E6E6E6"/><path d="M875 246 875 246C872.239 246 870 243.761 870 241L870 241C870 238.239 872.239 236 875 236L875 236C877.761 236 880 238.239 880 241L880 241C880 243.761 877.761 246 875 246Z" fill="#E6E6E6"/><path d="M905 246 905 246C902.239 246 900 243.761 900 241L900 241C900 238.239 902.239 236 905 236L905 236C907.761 236 910 238.239 910 241L910 241C910 243.761 907.761 246 905 246Z" fill="#E6E6E6"/><path d="M935 246 935 246C932.239 246 930 243.761 930 241L930 241C930 238.239 932.239 236 935 236L935 236C937.761 236 940 238.239 940 241L940 241C940 243.761 937.761 246 935 246Z" fill="#E6E6E6"/><path d="M965 246 965 246C962.239 246 960 243.761 960 241L960 241C960 238.239 962.239 236 965 236L965 236C967.761 236 970 238.239 970 241L970 241C970 243.761 967.761 246 965 246Z" fill="#E6E6E6"/><path d="M995 246 995 246C992.239 246 990 243.761 990 241L990 241C990 238.239 992.239 236 995 236L995 236C997.761 236 1000 238.239 1000 241L1000 241C1000 243.761 997.761 246 995 246Z" fill="#E6E6E6"/><path d="M1025 246 1025 246C1022.24 246 1020 243.761 1020 241L1020 241C1020 238.239 1022.24 236 1025 236L1025 236C1027.76 236 1030 238.239 1030 241L1030 241C1030 243.761 1027.76 246 1025 246Z" fill="#E6E6E6"/><path d="M1055 246 1055 246C1052.24 246 1050 243.761 1050 241L1050 241C1050 238.239 1052.24 236 1055 236L1055 236C1057.76 236 1060 238.239 1060 241L1060 241C1060 243.761 1057.76 246 1055 246Z" fill="#E6E6E6"/><path d="M1085 246 1085 246C1082.24 246 1080 243.761 1080 241L1080 241C1080 238.239 1082.24 236 1085 236L1085 236C1087.76 236 1090 238.239 1090 241L1090 241C1090 243.761 1087.76 246 1085 246Z" fill="#E6E6E6"/><path d="M1115 246 1115 246C1112.24 246 1110 243.761 1110 241L1110 241C1110 238.239 1112.24 236 1115 236L1115 236C1117.76 236 1120 238.239 1120 241L1120 241C1120 243.761 1117.76 246 1115 246Z" fill="#E6E6E6"/><path d="M1145 246 1145 246C1142.24 246 1140 243.761 1140 241L1140 241C1140 238.239 1142.24 236 1145 236L1145 236C1147.76 236 1150 238.239 1150 241L1150 241C1150 243.761 1147.76 246 1145 246Z" fill="#E6E6E6"/><path d="M1175 246 1175 246C1172.24 246 1170 243.761 1170 241L1170 241C1170 238.239 1172.24 236 1175 236L1175 236C1177.76 236 1180 238.239 1180 241L1180 241C1180 243.761 1177.76 246 1175 246Z" fill="#E6E6E6"/><path d="M1205 246 1205 246C1202.24 246 1200 243.761 1200 241L1200 241C1200 238.239 1202.24 236 1205 236L1205 236C1207.76 236 1210 238.239 1210 241L1210 241C1210 243.761 1207.76 246 1205 246Z" fill="#E6E6E6"/><path d="M875 276 875 276C872.239 276 870 273.761 870 271L870 271C870 268.239 872.239 266 875 266L875 266C877.761 266 880 268.239 880 271L880 271C880 273.761 877.761 276 875 276Z" fill="#E6E6E6"/><path d="M905 276 905 276C902.239 276 900 273.761 900 271L900 271C900 268.239 902.239 266 905 266L905 266C907.761 266 910 268.239 910 271L910 271C910 273.761 907.761 276 905 276Z" fill="#E6E6E6"/><path d="M935 276 935 276C932.239 276 930 273.761 930 271L930 271C930 268.239 932.239 266 935 266L935 266C937.761 266 940 268.239 940 271L940 271C940 273.761 937.761 276 935 276Z" fill="#E6E6E6"/><path d="M965 276 965 276C962.239 276 960 273.761 960 271L960 271C960 268.239 962.239 266 965 266L965 266C967.761 266 970 268.239 970 271L970 271C970 273.761 967.761 276 965 276Z" fill="#E6E6E6"/><path d="M995 276 995 276C992.239 276 990 273.761 990 271L990 271C990 268.239 992.239 266 995 266L995 266C997.761 266 1000 268.239 1000 271L1000 271C1000 273.761 997.761 276 995 276Z" fill="#E6E6E6"/><path d="M1025 276 1025 276C1022.24 276 1020 273.761 1020 271L1020 271C1020 268.239 1022.24 266 1025 266L1025 266C1027.76 266 1030 268.239 1030 271L1030 271C1030 273.761 1027.76 276 1025 276Z" fill="#E6E6E6"/><path d="M1055 276 1055 276C1052.24 276 1050 273.761 1050 271L1050 271C1050 268.239 1052.24 266 1055 266L1055 266C1057.76 266 1060 268.239 1060 271L1060 271C1060 273.761 1057.76 276 1055 276Z" fill="#E6E6E6"/><path d="M1085 276 1085 276C1082.24 276 1080 273.761 1080 271L1080 271C1080 268.239 1082.24 266 1085 266L1085 266C1087.76 266 1090 268.239 1090 271L1090 271C1090 273.761 1087.76 276 1085 276Z" fill="#E6E6E6"/><path d="M1115 276 1115 276C1112.24 276 1110 273.761 1110 271L1110 271C1110 268.239 1112.24 266 1115 266L1115 266C1117.76 266 1120 268.239 1120 271L1120 271C1120 273.761 1117.76 276 1115 276Z" fill="#E6E6E6"/><path d="M1145 276 1145 276C1142.24 276 1140 273.761 1140 271L1140 271C1140 268.239 1142.24 266 1145 266L1145 266C1147.76 266 1150 268.239 1150 271L1150 271C1150 273.761 1147.76 276 1145 276Z" fill="#E6E6E6"/><path d="M1175 276 1175 276C1172.24 276 1170 273.761 1170 271L1170 271C1170 268.239 1172.24 266 1175 266L1175 266C1177.76 266 1180 268.239 1180 271L1180 271C1180 273.761 1177.76 276 1175 276Z" fill="#E6E6E6"/><path d="M1205 276 1205 276C1202.24 276 1200 273.761 1200 271L1200 271C1200 268.239 1202.24 266 1205 266L1205 266C1207.76 266 1210 268.239 1210 271L1210 271C1210 273.761 1207.76 276 1205 276Z" fill="#E6E6E6"/><path d="M875 306 875 306C872.239 306 870 303.761 870 301L870 301C870 298.239 872.239 296 875 296L875 296C877.761 296 880 298.239 880 301L880 301C880 303.761 877.761 306 875 306Z" fill="#E6E6E6"/><path d="M905 306 905 306C902.239 306 900 303.761 900 301L900 301C900 298.239 902.239 296 905 296L905 296C907.761 296 910 298.239 910 301L910 301C910 303.761 907.761 306 905 306Z" fill="#E6E6E6"/><path d="M935 306 935 306C932.239 306 930 303.761 930 301L930 301C930 298.239 932.239 296 935 296L935 296C937.761 296 940 298.239 940 301L940 301C940 303.761 937.761 306 935 306Z" fill="#E6E6E6"/><path d="M965 306 965 306C962.239 306 960 303.761 960 301L960 301C960 298.239 962.239 296 965 296L965 296C967.761 296 970 298.239 970 301L970 301C970 303.761 967.761 306 965 306Z" fill="#E6E6E6"/><path d="M995 306 995 306C992.239 306 990 303.761 990 301L990 301C990 298.239 992.239 296 995 296L995 296C997.761 296 1000 298.239 1000 301L1000 301C1000 303.761 997.761 306 995 306Z" fill="#E6E6E6"/><path d="M1025 306 1025 306C1022.24 306 1020 303.761 1020 301L1020 301C1020 298.239 1022.24 296 1025 296L1025 296C1027.76 296 1030 298.239 1030 301L1030 301C1030 303.761 1027.76 306 1025 306Z" fill="#E6E6E6"/><path d="M1055 306 1055 306C1052.24 306 1050 303.761 1050 301L1050 301C1050 298.239 1052.24 296 1055 296L1055 296C1057.76 296 1060 298.239 1060 301L1060 301C1060 303.761 1057.76 306 1055 306Z" fill="#E6E6E6"/><path d="M1085 306 1085 306C1082.24 306 1080 303.761 1080 301L1080 301C1080 298.239 1082.24 296 1085 296L1085 296C1087.76 296 1090 298.239 1090 301L1090 301C1090 303.761 1087.76 306 1085 306Z" fill="#E6E6E6"/><path d="M1115 306 1115 306C1112.24 306 1110 303.761 1110 301L1110 301C1110 298.239 1112.24 296 1115 296L1115 296C1117.76 296 1120 298.239 1120 301L1120 301C1120 303.761 1117.76 306 1115 306Z" fill="#E6E6E6"/><path d="M1145 306 1145 306C1142.24 306 1140 303.761 1140 301L1140 301C1140 298.239 1142.24 296 1145 296L1145 296C1147.76 296 1150 298.239 1150 301L1150 301C1150 303.761 1147.76 306 1145 306Z" fill="#E6E6E6"/><path d="M1175 306 1175 306C1172.24 306 1170 303.761 1170 301L1170 301C1170 298.239 1172.24 296 1175 296L1175 296C1177.76 296 1180 298.239 1180 301L1180 301C1180 303.761 1177.76 306 1175 306Z" fill="#E6E6E6"/><path d="M1205 306 1205 306C1202.24 306 1200 303.761 1200 301L1200 301C1200 298.239 1202.24 296 1205 296L1205 296C1207.76 296 1210 298.239 1210 301L1210 301C1210 303.761 1207.76 306 1205 306Z" fill="#E6E6E6"/><path d="M875 336 875 336C872.239 336 870 333.761 870 331L870 331C870 328.239 872.239 326 875 326L875 326C877.761 326 880 328.239 880 331L880 331C880 333.761 877.761 336 875 336Z" fill="#E6E6E6"/><path d="M905 336 905 336C902.239 336 900 333.761 900 331L900 331C900 328.239 902.239 326 905 326L905 326C907.761 326 910 328.239 910 331L910 331C910 333.761 907.761 336 905 336Z" fill="#E6E6E6"/><path d="M935 336 935 336C932.239 336 930 333.761 930 331L930 331C930 328.239 932.239 326 935 326L935 326C937.761 326 940 328.239 940 331L940 331C940 333.761 937.761 336 935 336Z" fill="#E6E6E6"/><path d="M965 336 965 336C962.239 336 960 333.761 960 331L960 331C960 328.239 962.239 326 965 326L965 326C967.761 326 970 328.239 970 331L970 331C970 333.761 967.761 336 965 336Z" fill="#E6E6E6"/><path d="M995 336 995 336C992.239 336 990 333.761 990 331L990 331C990 328.239 992.239 326 995 326L995 326C997.761 326 1000 328.239 1000 331L1000 331C1000 333.761 997.761 336 995 336Z" fill="#E6E6E6"/><path d="M1025 336 1025 336C1022.24 336 1020 333.761 1020 331L1020 331C1020 328.239 1022.24 326 1025 326L1025 326C1027.76 326 1030 328.239 1030 331L1030 331C1030 333.761 1027.76 336 1025 336Z" fill="#E6E6E6"/><path d="M1055 336 1055 336C1052.24 336 1050 333.761 1050 331L1050 331C1050 328.239 1052.24 326 1055 326L1055 326C1057.76 326 1060 328.239 1060 331L1060 331C1060 333.761 1057.76 336 1055 336Z" fill="#E6E6E6"/><path d="M1085 336 1085 336C1082.24 336 1080 333.761 1080 331L1080 331C1080 328.239 1082.24 326 1085 326L1085 326C1087.76 326 1090 328.239 1090 331L1090 331C1090 333.761 1087.76 336 1085 336Z" fill="#E6E6E6"/><path d="M1115 336 1115 336C1112.24 336 1110 333.761 1110 331L1110 331C1110 328.239 1112.24 326 1115 326L1115 326C1117.76 326 1120 328.239 1120 331L1120 331C1120 333.761 1117.76 336 1115 336Z" fill="#E6E6E6"/><path d="M1145 336 1145 336C1142.24 336 1140 333.761 1140 331L1140 331C1140 328.239 1142.24 326 1145 326L1145 326C1147.76 326 1150 328.239 1150 331L1150 331C1150 333.761 1147.76 336 1145 336Z" fill="#E6E6E6"/><path d="M1175 336 1175 336C1172.24 336 1170 333.761 1170 331L1170 331C1170 328.239 1172.24 326 1175 326L1175 326C1177.76 326 1180 328.239 1180 331L1180 331C1180 333.761 1177.76 336 1175 336Z" fill="#E6E6E6"/><path d="M1205 336 1205 336C1202.24 336 1200 333.761 1200 331L1200 331C1200 328.239 1202.24 326 1205 326L1205 326C1207.76 326 1210 328.239 1210 331L1210 331C1210 333.761 1207.76 336 1205 336Z" fill="#E6E6E6"/><path d="M875 366 875 366C872.239 366 870 363.761 870 361L870 361C870 358.239 872.239 356 875 356L875 356C877.761 356 880 358.239 880 361L880 361C880 363.761 877.761 366 875 366Z" fill="#E6E6E6"/><path d="M905 366 905 366C902.239 366 900 363.761 900 361L900 361C900 358.239 902.239 356 905 356L905 356C907.761 356 910 358.239 910 361L910 361C910 363.761 907.761 366 905 366Z" fill="#E6E6E6"/><path d="M935 366 935 366C932.239 366 930 363.761 930 361L930 361C930 358.239 932.239 356 935 356L935 356C937.761 356 940 358.239 940 361L940 361C940 363.761 937.761 366 935 366Z" fill="#E6E6E6"/><path d="M965 366 965 366C962.239 366 960 363.761 960 361L960 361C960 358.239 962.239 356 965 356L965 356C967.761 356 970 358.239 970 361L970 361C970 363.761 967.761 366 965 366Z" fill="#E6E6E6"/><path d="M995 366 995 366C992.239 366 990 363.761 990 361L990 361C990 358.239 992.239 356 995 356L995 356C997.761 356 1000 358.239 1000 361L1000 361C1000 363.761 997.761 366 995 366Z" fill="#E6E6E6"/><path d="M1025 366 1025 366C1022.24 366 1020 363.761 1020 361L1020 361C1020 358.239 1022.24 356 1025 356L1025 356C1027.76 356 1030 358.239 1030 361L1030 361C1030 363.761 1027.76 366 1025 366Z" fill="#E6E6E6"/><path d="M1055 366 1055 366C1052.24 366 1050 363.761 1050 361L1050 361C1050 358.239 1052.24 356 1055 356L1055 356C1057.76 356 1060 358.239 1060 361L1060 361C1060 363.761 1057.76 366 1055 366Z" fill="#E6E6E6"/><path d="M1085 366 1085 366C1082.24 366 1080 363.761 1080 361L1080 361C1080 358.239 1082.24 356 1085 356L1085 356C1087.76 356 1090 358.239 1090 361L1090 361C1090 363.761 1087.76 366 1085 366Z" fill="#E6E6E6"/><path d="M1115 366 1115 366C1112.24 366 1110 363.761 1110 361L1110 361C1110 358.239 1112.24 356 1115 356L1115 356C1117.76 356 1120 358.239 1120 361L1120 361C1120 363.761 1117.76 366 1115 366Z" fill="#E6E6E6"/><path d="M1145 366 1145 366C1142.24 366 1140 363.761 1140 361L1140 361C1140 358.239 1142.24 356 1145 356L1145 356C1147.76 356 1150 358.239 1150 361L1150 361C1150 363.761 1147.76 366 1145 366Z" fill="#E6E6E6"/><path d="M1175 366 1175 366C1172.24 366 1170 363.761 1170 361L1170 361C1170 358.239 1172.24 356 1175 356L1175 356C1177.76 356 1180 358.239 1180 361L1180 361C1180 363.761 1177.76 366 1175 366Z" fill="#E6E6E6"/><path d="M1205 366 1205 366C1202.24 366 1200 363.761 1200 361L1200 361C1200 358.239 1202.24 356 1205 356L1205 356C1207.76 356 1210 358.239 1210 361L1210 361C1210 363.761 1207.76 366 1205 366Z" fill="#E6E6E6"/><path d="M875 396 875 396C872.239 396 870 393.761 870 391L870 391C870 388.239 872.239 386 875 386L875 386C877.761 386 880 388.239 880 391L880 391C880 393.761 877.761 396 875 396Z" fill="#E6E6E6"/><path d="M905 396 905 396C902.239 396 900 393.761 900 391L900 391C900 388.239 902.239 386 905 386L905 386C907.761 386 910 388.239 910 391L910 391C910 393.761 907.761 396 905 396Z" fill="#E6E6E6"/><path d="M935 396 935 396C932.239 396 930 393.761 930 391L930 391C930 388.239 932.239 386 935 386L935 386C937.761 386 940 388.239 940 391L940 391C940 393.761 937.761 396 935 396Z" fill="#E6E6E6"/><path d="M965 396 965 396C962.239 396 960 393.761 960 391L960 391C960 388.239 962.239 386 965 386L965 386C967.761 386 970 388.239 970 391L970 391C970 393.761 967.761 396 965 396Z" fill="#E6E6E6"/><path d="M995 396 995 396C992.239 396 990 393.761 990 391L990 391C990 388.239 992.239 386 995 386L995 386C997.761 386 1000 388.239 1000 391L1000 391C1000 393.761 997.761 396 995 396Z" fill="#E6E6E6"/><path d="M1025 396 1025 396C1022.24 396 1020 393.761 1020 391L1020 391C1020 388.239 1022.24 386 1025 386L1025 386C1027.76 386 1030 388.239 1030 391L1030 391C1030 393.761 1027.76 396 1025 396Z" fill="#E6E6E6"/><path d="M1055 396 1055 396C1052.24 396 1050 393.761 1050 391L1050 391C1050 388.239 1052.24 386 1055 386L1055 386C1057.76 386 1060 388.239 1060 391L1060 391C1060 393.761 1057.76 396 1055 396Z" fill="#E6E6E6"/><path d="M1085 396 1085 396C1082.24 396 1080 393.761 1080 391L1080 391C1080 388.239 1082.24 386 1085 386L1085 386C1087.76 386 1090 388.239 1090 391L1090 391C1090 393.761 1087.76 396 1085 396Z" fill="#E6E6E6"/><path d="M1115 396 1115 396C1112.24 396 1110 393.761 1110 391L1110 391C1110 388.239 1112.24 386 1115 386L1115 386C1117.76 386 1120 388.239 1120 391L1120 391C1120 393.761 1117.76 396 1115 396Z" fill="#E6E6E6"/><path d="M1145 396 1145 396C1142.24 396 1140 393.761 1140 391L1140 391C1140 388.239 1142.24 386 1145 386L1145 386C1147.76 386 1150 388.239 1150 391L1150 391C1150 393.761 1147.76 396 1145 396Z" fill="#E6E6E6"/><path d="M1175 396 1175 396C1172.24 396 1170 393.761 1170 391L1170 391C1170 388.239 1172.24 386 1175 386L1175 386C1177.76 386 1180 388.239 1180 391L1180 391C1180 393.761 1177.76 396 1175 396Z" fill="#E6E6E6"/><path d="M1205 396 1205 396C1202.24 396 1200 393.761 1200 391L1200 391C1200 388.239 1202.24 386 1205 386L1205 386C1207.76 386 1210 388.239 1210 391L1210 391C1210 393.761 1207.76 396 1205 396Z" fill="#E6E6E6"/><path d="M875 426 875 426C872.239 426 870 423.761 870 421L870 421C870 418.239 872.239 416 875 416L875 416C877.761 416 880 418.239 880 421L880 421C880 423.761 877.761 426 875 426Z" fill="#E6E6E6"/><path d="M905 426 905 426C902.239 426 900 423.761 900 421L900 421C900 418.239 902.239 416 905 416L905 416C907.761 416 910 418.239 910 421L910 421C910 423.761 907.761 426 905 426Z" fill="#E6E6E6"/><path d="M935 426 935 426C932.239 426 930 423.761 930 421L930 421C930 418.239 932.239 416 935 416L935 416C937.761 416 940 418.239 940 421L940 421C940 423.761 937.761 426 935 426Z" fill="#E6E6E6"/><path d="M965 426 965 426C962.239 426 960 423.761 960 421L960 421C960 418.239 962.239 416 965 416L965 416C967.761 416 970 418.239 970 421L970 421C970 423.761 967.761 426 965 426Z" fill="#E6E6E6"/><path d="M995 426 995 426C992.239 426 990 423.761 990 421L990 421C990 418.239 992.239 416 995 416L995 416C997.761 416 1000 418.239 1000 421L1000 421C1000 423.761 997.761 426 995 426Z" fill="#E6E6E6"/><path d="M1025 426 1025 426C1022.24 426 1020 423.761 1020 421L1020 421C1020 418.239 1022.24 416 1025 416L1025 416C1027.76 416 1030 418.239 1030 421L1030 421C1030 423.761 1027.76 426 1025 426Z" fill="#E6E6E6"/><path d="M1055 426 1055 426C1052.24 426 1050 423.761 1050 421L1050 421C1050 418.239 1052.24 416 1055 416L1055 416C1057.76 416 1060 418.239 1060 421L1060 421C1060 423.761 1057.76 426 1055 426Z" fill="#E6E6E6"/><path d="M1085 426 1085 426C1082.24 426 1080 423.761 1080 421L1080 421C1080 418.239 1082.24 416 1085 416L1085 416C1087.76 416 1090 418.239 1090 421L1090 421C1090 423.761 1087.76 426 1085 426Z" fill="#E6E6E6"/><path d="M1115 426 1115 426C1112.24 426 1110 423.761 1110 421L1110 421C1110 418.239 1112.24 416 1115 416L1115 416C1117.76 416 1120 418.239 1120 421L1120 421C1120 423.761 1117.76 426 1115 426Z" fill="#E6E6E6"/><path d="M1145 426 1145 426C1142.24 426 1140 423.761 1140 421L1140 421C1140 418.239 1142.24 416 1145 416L1145 416C1147.76 416 1150 418.239 1150 421L1150 421C1150 423.761 1147.76 426 1145 426Z" fill="#E6E6E6"/><path d="M1175 426 1175 426C1172.24 426 1170 423.761 1170 421L1170 421C1170 418.239 1172.24 416 1175 416L1175 416C1177.76 416 1180 418.239 1180 421L1180 421C1180 423.761 1177.76 426 1175 426Z" fill="#E6E6E6"/><path d="M1205 426 1205 426C1202.24 426 1200 423.761 1200 421L1200 421C1200 418.239 1202.24 416 1205 416L1205 416C1207.76 416 1210 418.239 1210 421L1210 421C1210 423.761 1207.76 426 1205 426Z" fill="#E6E6E6"/></g></svg>